<svg xmlns="http://www.w3.org/2000/svg" width="512" height="512" viewBox="0 0 512 512" fill="none">
  <defs>
    <linearGradient id="bg" x1="256" y1="18" x2="256" y2="494" gradientUnits="userSpaceOnUse">
      <stop stop-color="#FFE46B"/>
      <stop offset="1" stop-color="#F1B600"/>
    </linearGradient>
    <radialGradient id="lampGlow" cx="0" cy="0" r="1" gradientUnits="userSpaceOnUse" gradientTransform="translate(356 126) rotate(90) scale(60)">
      <stop stop-color="#FFF8CC" stop-opacity="0.92"/>
      <stop offset="1" stop-color="#FFF1A8" stop-opacity="0"/>
    </radialGradient>
  </defs>
  <rect x="20" y="20" width="472" height="472" rx="82" fill="url(#bg)"/>
  <path d="M20 418h472v74H20z" fill="#090909"/>
  <path d="M60 48h392c22.091 0 40 17.909 40 40v24H20V88c0-22.091 17.909-40 40-40Z" fill="#FFF7D1" opacity="0.22"/>
  <path d="M170 116c0-31.48 25.52-57 57-57 16.267 0 31.76 6.88 42.543 18.904 4.157 4.636 1.22 11.998-4.997 12.911-7.54 1.107-13.397 7.015-13.397 14.861 0 8.624 7.042 15.544 15.66 15.394l6.654-.115c9.527-.166 15.714 10.062 10.952 18.315-11.534 19.99-33.18 32.73-57.415 32.73-31.48 0-57-25.52-57-57Z" fill="#060608"/>
  <path d="M149 171c8-12 22.903-19 37.325-16.062l49.542 10.093c4.201.856 7.801 3.53 9.873 7.289l12.991 23.563 53.425 17.658c10.537 3.483 17.962 13.095 18.941 24.147L343 367c1.086 12.364-8.655 22.826-21.066 22.826H175.882c-13.341 0-24.055-11.242-23.409-24.567l7.512-154.259c.373-7.653 3.006-15.021 7.515-21.5Z" fill="#060608"/>
  <path d="M142 214c-13.802 0-24.979 11.706-24.33 25.493l6.874 145.942c.593 12.589 10.973 22.47 23.577 22.47h35.577l-13.514-97.78-25.418-1.166 10.004-95.959h-12.77Z" fill="#060608"/>
  <path d="M266.27 208.723 286 322.5 263.5 409h54.278c13.211 0 23.765-11.028 23.181-24.226L334.5 258.5 266.27 208.723Z" fill="#060608"/>
  <path d="M171 399c0-12.15 9.85-22 22-22h8v50h-30v-28Z" fill="#060608"/>
  <path d="M246 377h8c12.15 0 22 9.85 22 22v28h-30v-50Z" fill="#060608"/>
  <rect x="216" y="273" width="60" height="104" rx="8" fill="#09090B"/>
  <rect x="229" y="258" width="34" height="18" rx="4" stroke="#0E0E12" stroke-width="10"/>
  <path d="M360 209h-30c-6.627 0-12-5.373-12-12v-4c0-6.627 5.373-12 12-12h30l-14 28Z" fill="#0B0B0E"/>
  <path d="M360 287h-32c-6.627 0-12-5.373-12-12v-4c0-6.627 5.373-12 12-12h32l-16 28Z" fill="#0B0B0E"/>
  <path d="M360 365h-32c-6.627 0-12-5.373-12-12v-4c0-6.627 5.373-12 12-12h32l-16 28Z" fill="#0B0B0E"/>
  <path d="M374 209h30c6.627 0 12-5.373 12-12v-4c0-6.627-5.373-12-12-12h-30l14 28Z" fill="#0B0B0E"/>
  <path d="M374 287h32c6.627 0 12-5.373 12-12v-4c0-6.627-5.373-12-12-12h-32l16 28Z" fill="#0B0B0E"/>
  <path d="M374 365h32c6.627 0 12-5.373 12-12v-4c0-6.627-5.373-12-12-12h-32l16 28Z" fill="#0B0B0E"/>
  <rect x="338" y="85" width="98" height="240" rx="14" fill="#0B0B0E"/>
  <rect x="350" y="96" width="74" height="218" rx="10" fill="#111216"/>
  <circle cx="387" cy="126" r="54" fill="url(#lampGlow)"/>
  <circle cx="387" cy="126" r="36" fill="#FFF7BF"/>
  <circle cx="387" cy="126" r="29" fill="#FFE96A"/>
  <circle cx="387" cy="204" r="31" fill="#070708" stroke="#6F6F75" stroke-width="5"/>
  <circle cx="387" cy="282" r="31" fill="#070708" stroke="#6F6F75" stroke-width="5"/>
  <rect x="379" y="320" width="16" height="108" rx="4" fill="#09090B"/>
  <rect x="371" y="417" width="32" height="18" rx="4" fill="#09090B"/>
  <rect x="20" y="20" width="472" height="472" rx="82" stroke="#F1CC55" stroke-width="6"/>
</svg>