<svg xmlns="http://www.w3.org/2000/svg" width="512" height="512" viewBox="0 0 512 512" fill="none">
  <defs>
    <linearGradient id="bg" x1="256" y1="0" x2="256" y2="512" gradientUnits="userSpaceOnUse">
      <stop stop-color="#FFE86D"/>
      <stop offset="1" stop-color="#F3BB00"/>
    </linearGradient>
    <radialGradient id="lampGlow" cx="0" cy="0" r="1" gradientUnits="userSpaceOnUse" gradientTransform="translate(364 104) rotate(90) scale(72)">
      <stop stop-color="#FFF8C8" stop-opacity="0.96"/>
      <stop offset="1" stop-color="#FFF0A2" stop-opacity="0"/>
    </radialGradient>
  </defs>
  <rect width="512" height="512" rx="82" fill="url(#bg)"/>
  <path d="M0 0h512v82H0z" fill="#FFF9DA" opacity="0.26"/>
  <path d="M0 432h512v80H0z" fill="#050507"/>

  <ellipse cx="112" cy="132" rx="35" ry="42" fill="#050507"/>
  <path d="M76 170 60 308l16 122h48l12-84h25l12 84h52l16-110-5-82-12-55-53-28-37-19-58 34Z" fill="#050507"/>
  <path d="M74 188 50 342l14 37 18-8-2-53 20-114-26-16Z" fill="#050507"/>
  <path d="M184 300h17v32h-17z" fill="#050507"/>
  <rect x="174" y="296" width="57" height="95" rx="10" fill="#050507"/>
  <rect x="92" y="382" width="20" height="58" fill="#050507"/>
  <rect x="152" y="382" width="22" height="58" fill="#050507"/>
  <ellipse cx="103" cy="444" rx="34" ry="10" fill="#050507"/>
  <ellipse cx="167" cy="444" rx="36" ry="10" fill="#050507"/>

  <path d="M304 118h-36l-18 34h54v-34Z" fill="#050507"/>
  <path d="M416 118h36l-18 34h-18v-34Z" fill="#050507"/>
  <path d="M304 205h-33l-14 35h47v-35Z" fill="#050507"/>
  <path d="M416 205h33l-14 35h-19v-35Z" fill="#050507"/>
  <path d="M304 293h-25l-9 37h34v-37Z" fill="#050507"/>
  <path d="M416 293h25l-9 37h-16v-37Z" fill="#050507"/>
  <rect x="304" y="92" width="112" height="206" rx="12" fill="#050507"/>
  <rect x="381" y="314" width="19" height="119" fill="#050507"/>
  <rect x="370" y="418" width="40" height="16" fill="#050507"/>
  <circle cx="360" cy="104" r="60" fill="url(#lampGlow)"/>
  <circle cx="360" cy="104" r="41" fill="#FFEE78"/>
  <circle cx="360" cy="104" r="24" fill="#FFF8DB"/>
  <circle cx="360" cy="190" r="28" fill="#040406" stroke="#707078" stroke-width="5"/>
  <circle cx="360" cy="272" r="28" fill="#040406" stroke="#707078" stroke-width="5"/>

  <rect x="3" y="3" width="506" height="506" rx="79" stroke="#F6EDC0" stroke-width="6"/>
</svg>